
        <svg xmlns="http://www.w3.org/2000/svg" xmlns:xlink="http://www.w3.org/1999/xlink" version="1.1" width="3161.9820068979448" 
        height="783.776487374922" viewBox="0 0 3161.9820068979448 783.776487374922">
			<rect fill="#127780" width="3161.9820068979448" height="783.776487374922"/>
			<g transform="scale(8.099100344897213) translate(10, 10)">
				<defs id="SvgjsDefs1689"></defs><g id="SvgjsG1690" featureKey="symbolFeature-0" transform="matrix(29.91007773099982,0,0,29.91007773099982,-3.0024133727415276,-35.95060032545367)" fill="#ffffff"><g xmlns="http://www.w3.org/2000/svg"><path fill="#ffffff" d="M4.896,3.183C4.867,3.142,4.834,3.104,4.793,3.071C4.67,2.844,4.471,2.645,4.264,2.492   c-0.17-0.128-0.309-0.161-0.438-0.021C3.693,2.319,3.639,2.112,3.498,1.959C3.346,1.79,3.26,1.571,3.049,1.459   C2.953,1.41,2.846,1.442,2.787,1.529C2.693,1.687,2.623,1.86,2.512,2.004C2.389,2.166,2.279,2.335,2.164,2.496   c-0.074-0.058-0.148-0.11-0.211-0.19C1.908,2.24,1.846,2.19,1.785,2.141C1.678,2.062,1.527,1.992,1.416,2.1   C1.293,2.224,1.23,2.39,1.156,2.546c-0.049,0.104-0.115,0.183-0.16,0.276C0.975,2.799,0.949,2.773,0.92,2.762   c-0.008-0.01-0.016-0.01-0.023-0.014c-0.088-0.07-0.199-0.104-0.318-0.041C0.293,2.859,0.193,3.17,0.102,3.463   C0.09,3.5,0.148,3.521,0.168,3.488c0.096-0.17,0.236-0.272,0.352-0.417c0.055-0.062,0.1-0.116,0.133-0.19   c0.004-0.004,0.004-0.004,0.004-0.009l0,0c0.016,0.017,0.033,0.037,0.049,0.054c0,0.038,0.012,0.079,0.033,0.108   c0.041,0.066,0.133,0.115,0.137,0.193c0,0.066-0.033,0.128-0.074,0.187C0.76,3.451,0.723,3.488,0.693,3.546   c0,0.005,0,0.013,0.008,0.009C0.838,3.542,0.949,3.434,1.07,3.377c0.082-0.042,0.16-0.092,0.246-0.128   C1.395,3.22,1.461,3.216,1.52,3.153c0.029-0.029,0.021-0.074-0.012-0.096C1.445,3.021,1.371,3.021,1.297,3.042   C1.23,3.017,1.16,2.997,1.1,2.959C1.086,2.951,1.07,2.946,1.057,2.938c0.025-0.087,0.137-0.177,0.182-0.243   c0.07-0.1,0.115-0.22,0.178-0.327c0.004-0.012,0.041-0.07,0.07-0.107c0.029,0.082,0.059,0.156,0.07,0.244   C1.578,2.607,1.689,2.662,1.693,2.77C1.697,2.855,1.73,2.918,1.797,2.968C1.838,3.001,1.879,3.005,1.93,3.029   c0.027,0.009,0.045,0.024,0.057,0.046c-0.004,0.107-0.02,0.219-0.025,0.317c0,0.014,0.014,0.018,0.021,0.009   c0.045-0.058,0.074-0.104,0.104-0.174c0.029-0.074,0.09-0.152,0.111-0.23c0.012-0.042,0.016-0.088,0.021-0.129   C2.223,2.852,2.23,2.831,2.23,2.811c0-0.004,0-0.004,0-0.008c0.025-0.041,0.049-0.088,0.086-0.111   c0.096-0.066,0.137-0.137,0.188-0.236c0.115-0.228,0.256-0.43,0.408-0.628c0.012,0,0.025,0.008,0.037,0.012   c0.008,0.112,0.045,0.212,0.078,0.318C3.07,2.29,3.168,2.394,3.215,2.525C3.219,2.533,3.219,2.542,3.223,2.55   c-0.096,0-0.352-0.074-0.344-0.049c0.016,0.091,0.088,0.321,0.145,0.392c0.088,0.104,0.15,0.187,0.207,0.306   C3.346,3.43,3.561,3.48,3.789,3.562c0.049,0.021,0.09-0.059,0.049-0.092C3.746,3.401,3.664,3.34,3.623,3.236   c0.02,0,0.037,0,0.053-0.005C3.701,3.24,3.73,3.24,3.742,3.22C3.76,3.203,3.771,3.183,3.785,3.161   c0.016-0.02,0.023-0.041,0.033-0.066C3.889,2.931,3.9,2.736,4.02,2.607c0.051,0.046,0.1,0.088,0.156,0.129   c0.037,0.029,0.084,0.07,0.133,0.107c-0.045,0-0.086,0.008-0.115,0.024c-0.021,0.017-0.025,0.046,0,0.058   C4.301,2.983,4.43,2.968,4.527,3.054c0.096,0.078,0.211,0.153,0.336,0.174C4.887,3.231,4.912,3.207,4.896,3.183z"></path></g></g><g id="SvgjsG1691" featureKey="nameFeature-0" transform="matrix(0.6572778177143914,0,0,0.6572778177143914,164.00000250731588,0)" fill="#ffffff"><path d="M64.04 0 l0.28 0 c1.76 0 4.4 0.92 4.4 1.64 c0 0.08 -0.04 0.16 -0.12 0.24 c-0.64 0.64 -21.28 34.48 -21.28 41.52 c0 0.8 0.48 1.12 0.48 1.32 c0 0.4 -0.96 0.68 -2.2 0.68 c-2.32 0 -5.68 -0.92 -5.68 -3.44 c0 -0.96 1.52 -4.2 3.8 -8.52 c-1.72 -0.64 -3.6 -1.76 -5.52 -3.08 c-9.12 10.36 -19.16 19.64 -28.28 19.64 c-6.84 0 -9.92 -4.16 -9.92 -9.4 c0 -8.8 8.72 -20.64 23.04 -20.64 c5.36 0 9.6 1.92 13.08 4.2 c11.32 -12.28 22.2 -24.16 27.92 -24.16 z M8.48 47.84 c5.32 0 14.96 -9.96 24.96 -20.76 c-3.68 -2.52 -7.4 -4.76 -10.56 -4.76 c-10.28 0 -17.52 13.68 -17.52 21.04 c0 2.64 0.96 4.48 3.12 4.48 z M40.68 27.48 c1.72 1.32 3.2 2.44 4.56 3.12 c4.44 -8.24 10.68 -18.88 14.44 -25.08 c-4.96 4.44 -11.6 13.32 -19 21.96 z M75.36 26.2 c0.04 -0.04 0.16 -0.08 0.28 -0.08 c0.48 0 1.36 0.4 1.36 0.68 c0 0.04 -0.04 0.04 -0.04 0.08 c-0.6 0.56 -7.04 13.12 -10.84 13.12 c-3.04 0 -5.92 -1.56 -5.92 -3.96 c0 -1.36 3.64 -8.16 6.04 -12.32 c-0.32 0.08 -0.64 0.12 -1 0.12 c-0.96 0 -1.84 -0.16 -2.56 -0.48 c-2.68 4.68 -4.24 7.92 -5.36 7.92 c-0.48 0 -0.88 -0.36 -0.88 -0.72 c0 -0.16 0.04 -0.28 0.2 -0.44 c0.6 -0.6 2.88 -4.88 4.56 -7.68 c-0.68 -0.68 -1.04 -1.52 -1.04 -2.56 c0 -1.96 1.52 -4.24 2.36 -5.08 c0.2 -0.2 0.56 -0.28 0.96 -0.28 c1.44 0 3.64 0.96 3.64 1.56 c0 -0.16 -1.8 2.48 -1.8 4.24 c0 0.64 0.28 1.08 1.04 1.08 c1.44 0 1.44 -1.4 3.36 -1.4 c1.68 0 4.04 0.88 4.04 1.6 c0 -0.24 -7.4 12.64 -7.4 15.44 c0 0.28 0.08 0.44 0.28 0.44 c1.96 0 8.12 -10.68 8.72 -11.28 z M93.08000000000001 26.28 c0.04 -0.04 0.12 -0.08 0.24 -0.08 c0.48 0 1.36 0.4 1.36 0.68 l0 0 c-0.2 0 -3.32 6.72 -9.48 8.68 c-2.16 2.56 -4.92 4.44 -7.68 4.44 c-3.48 0 -4.92 -2.28 -4.92 -5.32 c0 -5.92 5.52 -14.68 12.32 -14.68 c3.36 0 4.72 2.08 4.72 4.88 c0 2.2 -0.8 4.84 -2.16 7.28 c3.4 -2.12 5.2 -5.48 5.6 -5.88 z M86.16000000000001 22.68 c-2.72 0 -8.28 9.28 -8.28 13.04 c0 0.96 0.36 1.56 1.24 1.56 c0.64 0 1.4 -0.48 2.2 -1.24 c-0.8 -0.16 -1.2 -0.64 -1.2 -1.08 c0 -1.16 1.44 -0.84 3 -1.12 c2.2 -3.08 4.12 -7.4 4.12 -9.64 c0 -0.92 -0.32 -1.52 -1.08 -1.52 z M113.72000000000001 26.2 c0.04 -0.04 0.16 -0.08 0.28 -0.08 c0.48 0 1.32 0.4 1.32 0.68 c0 0 0 0.04 -0.04 0.08 c-0.56 0.56 -7.04 13.12 -10.8 13.12 c-2.84 0 -5.56 -1.36 -5.88 -3.52 c-1.72 2 -3.56 3.52 -5.24 3.52 c-1.96 0 -4.48 -0.8 -4.48 -4.24 c0 -3.04 6.64 -14.52 7.52 -15.36 c0.28 -0.28 0.76 -0.4 1.36 -0.4 c1.68 0 4.04 0.92 4.04 1.6 c0 -0.24 -7.4 12.6 -7.4 15.44 c0 0.28 0.12 0.44 0.32 0.44 c1.4 0 6.96 -9 10 -13.92 c2.12 -3.68 1.96 -3.56 3.32 -3.56 c1.68 0 4.08 0.92 4.08 1.64 c0 -0.28 -7.4 12.6 -7.4 15.4 c0 0.28 0.08 0.44 0.28 0.44 c1.96 0 8.12 -10.68 8.72 -11.28 z M134.68 26.240000000000002 c0.04 -0.04 0.16 -0.08 0.28 -0.08 c0.48 0 1.32 0.4 1.32 0.68 c0 0 0 0.04 -0.04 0.08 c-0.56 0.56 -7.04 13.12 -10.8 13.12 c-3.04 0 -5.92 -1.56 -5.92 -3.96 c0 -1.12 2.68 -6.44 5.12 -10.64 c-4.28 4.72 -10.92 13.6 -10.92 13.96 s-0.48 0.52 -1.16 0.52 c-1.64 0 -4.44 -0.92 -4.44 -2.04 c0 -1.96 8 -16.64 8.84 -17.52 c0.28 -0.28 0.76 -0.4 1.36 -0.4 c1.68 0 4.08 0.92 4.08 1.64 c0 0.08 -0.04 0.16 -0.12 0.24 c-0.32 0.32 -2.32 4 -4.28 7.96 c3.76 -4.84 8.32 -9.84 10.56 -9.84 c1.32 0 4.16 1.72 4.16 2.76 c0 0.16 -0.04 0.28 -0.16 0.4 c-0.6 0.56 -6.92 11.56 -6.92 13.96 c0 0.28 0.12 0.44 0.32 0.44 c1.96 0 8.12 -10.68 8.72 -11.28 z M154.32000000000002 10.399999999999999 c0.28 -0.28 0.76 -0.4 1.36 -0.4 c1.68 0 4.08 0.92 4.08 1.64 c0 0.08 -0.04 0.16 -0.12 0.24 c-0.64 0.64 -12.68 22.44 -12.68 25.32 c0 0.2 0.08 0.28 0.2 0.28 c1.96 0 8.12 -10.68 8.72 -11.28 c0.04 -0.04 0.16 -0.08 0.28 -0.08 c0.48 0 1.32 0.4 1.32 0.68 c0 0 0 0.04 -0.04 0.08 c-0.56 0.56 -7.04 13.12 -10.8 13.12 c-2.72 0 -5.32 -1.24 -5.84 -3.24 c-1.68 1.92 -3.4 3.28 -4.88 3.28 c-3.48 0 -4.84 -1.88 -4.84 -4.52 c0 -5.88 6.8 -15.48 11.44 -15.48 c2.88 0 4.04 1.68 4.48 3.16 c3.36 -6.2 6.88 -12.36 7.32 -12.8 z M136.84 37.12 c1.8 0 8.8 -10.48 8.8 -11.92 c0 -0.4 0.04 -1.88 -0.96 -1.88 c-2.76 0 -8.2 10.56 -8.2 13.2 c0 0.4 0.12 0.6 0.36 0.6 z M183.32000000000002 15.52 c0.24 0 0.36 0.24 0.36 0.6 c0 1.08 -1.04 3.24 -2.28 3.24 c-0.92 0 -2.56 -0.08 -4.48 -0.2 c-3.72 6.84 -8.52 16.2 -8.52 18 c0 0.2 0.08 0.32 0.2 0.32 c1.92 0 8.12 -10.68 8.72 -11.28 c0.04 -0.04 0.16 -0.08 0.28 -0.08 c0.48 0 1.32 0.4 1.32 0.68 c0 0.04 0 0.04 -0.04 0.08 c-0.56 0.56 -7.04 13.12 -10.8 13.12 c-3.04 0 -5.92 -1.56 -5.92 -3.96 c0 -1.2 4.76 -10.16 8.64 -17.2 c-3.28 -0.16 -5 -0.04 -5 -0.6 c0 -0.72 0.84 -2.44 1.44 -2.44 c1.24 0 3.2 -0.04 5.32 -0.08 c3.44 -6.08 3.12 -5.72 4.56 -5.72 c1.68 0 4.08 0.92 4.08 1.64 c0 0.04 -0.36 0.48 -2.32 3.96 c2.08 -0.08 3.76 -0.08 4.44 -0.08 z M198.24000000000004 26.2 c0.04 -0.04 0.12 -0.08 0.24 -0.08 c0.48 0 1.4 0.44 1.4 0.72 c0 0.04 -0.04 0.04 -0.04 0.08 c-0.6 0.56 -7.04 13.12 -10.84 13.12 c-3.04 0 -5.92 -1.56 -5.92 -3.96 c0 -1.16 2.68 -6.44 5.12 -10.64 c-4.28 4.72 -10.92 13.6 -10.92 13.96 s-0.48 0.52 -1.16 0.52 c-1.64 0 -4.44 -0.92 -4.44 -2.04 c0 -1.96 13.08 -26.6 13.96 -27.48 c0.28 -0.28 0.76 -0.4 1.36 -0.4 c1.68 0 4.04 0.92 4.04 1.6 c0 0.12 -0.04 0.2 -0.12 0.28 c-0.4 0.4 -5.4 9.96 -9.2 17.68 c3.72 -4.76 8.2 -9.6 10.4 -9.6 c1.32 0 4.16 1.68 4.16 2.76 c0 0.16 -0.04 0.28 -0.16 0.4 c-0.56 0.56 -6.92 11.6 -6.92 13.96 c0 0.28 0.12 0.44 0.32 0.44 c1.96 0 8.12 -10.68 8.72 -11.32 z M215.60000000000002 26.2 c0.04 -0.04 0.12 -0.08 0.24 -0.08 c0.48 0 1.36 0.4 1.36 0.68 c0 -0.2 -6.96 13.2 -14.64 13.2 c-5.24 0 -7.28 -2.6 -7.28 -5.92 c0 -5.92 6.36 -14.08 12.72 -14.08 c3.48 0 4.8 1.56 4.8 3.64 c0 4 -5 9.88 -9.12 9.88 c-0.68 0 -1.28 -0.16 -1.88 -0.48 c-0.24 0.84 -0.36 1.64 -0.36 2.32 c0 1.52 0.6 2.52 2.04 2.52 c5.6 0 11.32 -10.88 12.12 -11.68 z M209.76000000000005 22.88 c-2.44 0 -5.44 3.84 -7.08 7.64 c0.24 0.12 0.48 0.16 0.76 0.16 c2.92 0 6.8 -5.44 6.8 -7.24 c0 -0.36 -0.16 -0.56 -0.48 -0.56 z M247.96000000000004 26.16 c0.04 -0.04 0.12 -0.08 0.24 -0.08 c0.44 0 1.36 0.44 1.36 0.68 c0 0.04 -0.04 0.08 -0.04 0.08 c-0.52 0.52 -4.92 10.68 -12.76 12.76 c-3.6 5.64 -7.64 10.4 -11.12 10.4 c-3.24 0 -5.04 -2.12 -5.04 -4.88 c0 -2 1.92 -4.24 5.12 -5.8 c-1.28 -0.76 -1.84 -2.16 -1.84 -3.8 c0 -5.92 6.84 -15.52 11.48 -15.52 c2.64 0 3.84 1.44 4.36 2.84 c1.64 -3.24 1.4 -2.8 2.64 -2.8 c1.68 0 4.08 0.88 4.08 1.6 c0 0.08 -0.04 0.16 -0.12 0.24 c-0.32 0.36 -3.48 7.48 -7.56 14.48 c5.32 -2.76 8.68 -9.72 9.2 -10.2 z M237.52000000000004 23.28 c-2.76 0 -8.2 10.6 -8.2 13.24 c0 0.4 0.12 0.6 0.36 0.6 c1.56 0 8.8 -10.08 8.8 -11.92 c0 -0.4 0.04 -1.92 -0.96 -1.92 z M224.04000000000002 47.36 c1.48 0 3.72 -2.8 6.08 -6.6 c-3.88 1.64 -6.28 5.36 -6.28 6.36 c0 0.16 0.08 0.24 0.2 0.24 z M256.56 10.399999999999999 c0.28 -0.28 0.76 -0.4 1.36 -0.4 c1.68 0 4.08 0.92 4.08 1.64 c0 0.08 -0.04 0.16 -0.12 0.24 c-0.64 0.64 -12.68 22.44 -12.68 25.32 c0 0.2 0.08 0.28 0.2 0.28 c1.92 0 8.12 -10.68 8.72 -11.28 c0.04 -0.04 0.16 -0.08 0.28 -0.08 c0.48 0 1.32 0.4 1.32 0.68 c0 0.04 0 0.04 -0.04 0.08 c-0.56 0.56 -7.04 13.12 -10.8 13.12 c-3.04 0 -5.92 -1.56 -5.92 -3.96 c0 -1.96 12.72 -24.76 13.6 -25.64 z M275.68 26.28 c0.04 -0.04 0.12 -0.08 0.24 -0.08 c0.48 0 1.36 0.4 1.36 0.68 l0 0 c-0.2 0 -3.32 6.72 -9.48 8.68 c-2.16 2.56 -4.92 4.44 -7.68 4.44 c-3.48 0 -4.92 -2.28 -4.92 -5.32 c0 -5.92 5.52 -14.68 12.32 -14.68 c3.36 0 4.72 2.08 4.72 4.88 c0 2.2 -0.8 4.84 -2.16 7.28 c3.4 -2.12 5.2 -5.48 5.6 -5.88 z M268.76 22.68 c-2.72 0 -8.28 9.28 -8.28 13.04 c0 0.96 0.36 1.56 1.24 1.56 c0.64 0 1.4 -0.48 2.2 -1.24 c-0.8 -0.16 -1.2 -0.64 -1.2 -1.08 c0 -1.16 1.44 -0.84 3 -1.12 c2.2 -3.08 4.12 -7.4 4.12 -9.64 c0 -0.92 -0.32 -1.52 -1.08 -1.52 z M295.12 26.16 c0.04 -0.04 0.12 -0.08 0.24 -0.08 c0.48 0 1.36 0.44 1.36 0.68 c0 0.04 0 0.04 -0.04 0.08 c-0.56 0.6 -6.12 13.12 -15.24 13.12 c-0.32 0.08 -0.6 0.08 -0.84 0.08 c-2.16 0 -3.6 -0.96 -4.44 -2.08 c-0.8 1.76 -0.2 1.96 -1.64 1.96 c-1.64 0 -4.44 -0.92 -4.44 -2.04 c0 -1.96 13.08 -26.6 13.96 -27.48 c0.28 -0.28 0.76 -0.4 1.36 -0.4 c1.68 0 4.04 0.92 4.04 1.6 c0 0.12 -0.04 0.2 -0.12 0.28 c-0.24 0.28 -2.52 4.48 -5.12 9.56 c1.08 -0.88 2.08 -1.4 3 -1.4 c3.48 0 4.84 1.92 4.84 4.52 c0 3.32 -2.16 7.8 -4.84 11.08 c4.48 -3.08 7.48 -9.04 7.92 -9.48 z M278.44 36.76 c2.76 0 8.2 -10.56 8.2 -13.2 c0 -0.4 -0.12 -0.6 -0.36 -0.6 c-1.24 0 -4.92 4.96 -7.12 8.52 c-0.6 1.28 -1.16 2.44 -1.68 3.48 c0 0.52 0.04 1.8 0.96 1.8 z M312.44 26.2 c0.04 -0.04 0.12 -0.08 0.24 -0.08 c0.48 0 1.36 0.4 1.36 0.68 c0 -0.2 -6.96 13.2 -14.64 13.2 c-5.24 0 -7.28 -2.6 -7.28 -5.92 c0 -5.92 6.36 -14.08 12.72 -14.08 c3.48 0 4.8 1.56 4.8 3.64 c0 4 -5 9.88 -9.12 9.88 c-0.68 0 -1.28 -0.16 -1.88 -0.48 c-0.24 0.84 -0.36 1.64 -0.36 2.32 c0 1.52 0.6 2.52 2.04 2.52 c5.6 0 11.32 -10.88 12.12 -11.68 z M306.59999999999997 22.88 c-2.44 0 -5.44 3.84 -7.08 7.64 c0.24 0.12 0.48 0.16 0.76 0.16 c2.92 0 6.8 -5.44 6.8 -7.24 c0 -0.36 -0.16 -0.56 -0.48 -0.56 z"></path></g><g id="SvgjsG1692" featureKey="sloganFeature-0" transform="matrix(1.2045396852276735,0,0,1.2045396852276735,161.80026961672831,46.97730157386163)" fill="#ffffff"><path d="M4.7559 17.4121 l4.4238 0 l0 2.5879 l-7.3535 0 l0 -14.111 l2.9297 0 l0 11.523 z M19.1255390625 14.834 l-0.029297 0.67383 l-7.4414 0 c0.11719 1.6699 1.2305 2.4707 2.5684 2.4707 c1.0059 0 1.7871 -0.46875 2.168 -1.3574 l2.5781 0.38086 c-0.66406 2.0313 -2.4707 3.1934 -4.7266 3.1934 c-3.2422 0 -5.3613 -1.9141 -5.3613 -5.2148 s2.1777 -5.2344 5.2734 -5.2344 c2.8418 0 4.9609 1.5723 4.9707 5.0879 z M14.1748390625 11.7383 c-1.2793 0 -2.168 0.5957 -2.4414 1.9336 l4.6094 0 c-0.14648 -1.2793 -1.0156 -1.9336 -2.168 -1.9336 z M23.642565625 20 c-1.9531 0 -3.0664 -1.1328 -3.0664 -3.1348 l0 -4.7461 l-1.9727 0 l0 -2.1582 l0.63477 0 c1.0645 0 1.6504 -0.41016 1.6504 -1.9141 l0 -1.3281 l2.5391 0 l0 3.2422 l2.0703 0 l0 2.1582 l-2.0703 0 l0 4.4434 c0 0.89844 0.43945 1.2988 1.1621 1.2988 l0.9082 0 l0 2.1387 l-1.8555 0 z M27.0263984375 12.2559 l-0.2832 -6.3672 l2.6563 0 l-0.36133 6.3672 l-2.0117 0 z M34.882778125 20.19531 c-2.2559 0 -4.0039 -0.88867 -4.3652 -2.793 l2.3535 -0.66406 c0.30273 1.0742 1.0645 1.4941 2.0117 1.4941 c0.69336 0 1.4453 -0.21484 1.4258 -1.0059 c-0.0097656 -1.0449 -1.5918 -1.1328 -3.1836 -1.6992 c-1.2012 -0.41992 -2.3535 -1.0645 -2.3535 -2.7539 c0 -2.0605 1.709 -3.0078 3.9355 -3.0078 c1.9531 0 3.584 0.74219 3.9746 2.6563 l-2.1777 0.48828 c-0.30273 -0.9375 -0.9668 -1.2695 -1.7871 -1.2695 c-0.74219 0 -1.377 0.26367 -1.377 0.88867 c0 0.79102 1.1621 0.94727 2.4219 1.2891 c1.5527 0.41992 3.252 1.0938 3.252 3.2422 c0 2.3047 -1.9629 3.1348 -4.1309 3.1348 z M50.41988125 9.961 l2.6758 0 l0 9.2871 c0 3.9063 -2.1191 5.4883 -5.3223 5.4883 c-2.8809 0 -4.4434 -1.2109 -5.1758 -3.1152 l2.334 -0.99609 c0.56641 1.2988 1.3867 1.9238 2.7344 1.9238 c1.7773 0 2.6074 -1.1133 2.6074 -3.0957 l0 -1.1719 c-0.58594 0.80078 -1.7383 1.3672 -3.0469 1.3672 c-2.4902 0 -4.5801 -1.9629 -4.5801 -4.9609 c0 -3.0078 2.0996 -4.9219 4.5996 -4.9219 c1.4063 0 2.5586 0.625 3.1055 1.5234 z M47.94918125 17.373 c1.4648 0 2.5977 -1.1914 2.5977 -2.6855 c0 -1.5039 -1.1133 -2.6953 -2.5977 -2.6953 c-1.4746 0 -2.5879 1.1426 -2.5879 2.6953 c0 1.5332 1.1328 2.6855 2.5879 2.6855 z M59.3310421875 20.19531 c-3.1934 0 -5.498 -1.9434 -5.498 -5.2246 c0 -3.2617 2.2852 -5.2051 5.498 -5.2051 c3.2324 0 5.5078 1.9434 5.5078 5.2051 c0 3.2813 -2.2852 5.2246 -5.5078 5.2246 z M59.3017421875 17.959 c1.6309 0 2.7441 -1.1914 2.7441 -2.9883 s-1.1133 -2.9883 -2.7441 -2.9883 c-1.5723 0 -2.6758 1.1914 -2.6758 2.9883 s1.1035 2.9883 2.6758 2.9883 z M73.1396359375 20 c-1.9531 0 -3.0664 -1.1328 -3.0664 -3.1348 l0 -4.7461 l-1.9727 0 l0 -2.1582 l0.63477 0 c1.0645 0 1.6504 -0.41016 1.6504 -1.9141 l0 -1.3281 l2.5391 0 l0 3.2422 l2.0703 0 l0 2.1582 l-2.0703 0 l0 4.4434 c0 0.89844 0.43945 1.2988 1.1621 1.2988 l0.9082 0 l0 2.1387 l-1.8555 0 z M78.50586875 11.5527 c0.50781 -0.88867 1.8262 -1.709 3.2813 -1.709 l0 2.5098 c-2.1289 0 -3.1445 0.625 -3.1445 2.7539 l0 4.8926 l-2.832 0 l0 -10.039 l2.6953 0 l0 1.5918 z M90.3076171875 17.2754 c0 1.2305 0.11719 2.0117 0.24414 2.4512 l0 0.27344 l-2.627 0 l-0.22461 -1.0938 c-0.75195 0.9082 -2.0508 1.2891 -3.2227 1.2891 c-1.582 0 -3.125 -0.70313 -3.125 -2.793 c0 -2.0801 1.5527 -2.7832 3.6523 -3.2422 l1.6504 -0.37109 c0.71289 -0.16602 0.9668 -0.41016 0.9668 -0.82031 c0 -0.98633 -0.89844 -1.2598 -1.6895 -1.2598 c-1.0156 0 -1.7871 0.40039 -1.9629 1.5332 l-2.4902 -0.44922 c0.41992 -2.0801 1.9434 -3.0273 4.6094 -3.0273 c2.0117 0 4.2188 0.5957 4.2188 3.623 l0 3.8867 z M85.3564171875 18.291 c1.3379 0 2.4121 -0.88867 2.4121 -2.8809 l-2.3828 0.67383 c-0.78125 0.18555 -1.3477 0.45898 -1.3477 1.1328 c0 0.72266 0.5957 1.0742 1.3184 1.0742 z M98.212909375 9.961 l2.9785 0 l-4.2773 10.039 l-2.4414 0 l-4.2285 -10.039 l2.959 0 l2.5 6.8652 z M110.7466328125 14.834 l-0.029297 0.67383 l-7.4414 0 c0.11719 1.6699 1.2305 2.4707 2.5684 2.4707 c1.0059 0 1.7871 -0.46875 2.168 -1.3574 l2.5781 0.38086 c-0.66406 2.0313 -2.4707 3.1934 -4.7266 3.1934 c-3.2422 0 -5.3613 -1.9141 -5.3613 -5.2148 s2.1777 -5.2344 5.2734 -5.2344 c2.8418 0 4.9609 1.5723 4.9707 5.0879 z M105.7959328125 11.7383 c-1.2793 0 -2.168 0.5957 -2.4414 1.9336 l4.6094 0 c-0.14648 -1.2793 -1.0156 -1.9336 -2.168 -1.9336 z M111.523459375 20 l0 -15 l2.8418 0 l0 15 l-2.8418 0 z M116.5771078125 15.498000000000001 l-0.2832 -9.6094 l2.832 0 l-0.2832 9.6094 l-2.2656 0 z M117.7100078125 20.19531 c-0.87891 0 -1.6016 -0.72266 -1.6016 -1.6016 c0 -0.89844 0.72266 -1.6211 1.6016 -1.6211 c0.89844 0 1.6211 0.72266 1.6211 1.6211 c0 0.87891 -0.72266 1.6016 -1.6211 1.6016 z"></path></g>
			</g>
		</svg>
	